<?xml version="1.0" standalone="no"?>
<!DOCTYPE svg PUBLIC "-//W3C//DTD SVG 20010904//EN"
 "http://www.w3.org/TR/2001/REC-SVG-20010904/DTD/svg10.dtd">
<svg version="1.0" xmlns="http://www.w3.org/2000/svg"
 width="256.000000pt" height="256.000000pt" viewBox="0 0 256.000000 256.000000"
 preserveAspectRatio="xMidYMid meet">
<metadata>
Created by potrace 1.11, written by Peter Selinger 2001-2013
</metadata>
<g transform="translate(0.000000,256.000000) scale(0.100000,-0.100000)"
fill="#000000" stroke="none">
<path d="M1086 2504 c-142 -22 -292 -75 -420 -149 -37 -22 -77 -45 -87 -51
-11 -6 -33 -23 -49 -38 -16 -14 -32 -26 -35 -26 -4 0 -39 -33 -79 -72 -78 -79
-168 -193 -206 -260 -31 -58 -72 -141 -75 -153 -1 -5 -10 -28 -19 -49 -10 -22
-19 -47 -21 -55 -2 -9 -10 -43 -18 -76 -26 -102 -29 -125 -32 -275 -3 -135 0
-163 31 -319 14 -68 100 -282 116 -289 5 -2 8 -9 8 -15 0 -14 69 -120 82 -125
4 -2 8 -9 8 -16 0 -20 167 -187 247 -247 58 -44 221 -141 243 -144 3 -1 22 -9
44 -18 21 -9 80 -28 130 -42 328 -88 666 -42 961 130 28 16 52 32 55 36 3 3
24 18 47 32 72 45 218 198 287 300 36 54 66 104 66 112 0 8 5 15 10 15 6 0 10
4 10 10 0 5 11 33 24 62 71 159 104 320 103 501 0 110 -6 159 -33 294 -2 12
-9 35 -15 50 -6 16 -10 28 -9 28 2 0 -9 32 -25 75 -125 331 -415 608 -760 725
-175 59 -400 78 -589 49z"/>
</g>
</svg>
